<?xml version="1.0" encoding="UTF-8"?>
<svg id="Layer_1" xmlns="http://www.w3.org/2000/svg" version="1.1" viewBox="0 0 792 130">
  <!-- Generator: Adobe Illustrator 29.3.1, SVG Export Plug-In . SVG Version: 2.1.0 Build 151)  -->
  <g id="ID_3">
    <path id="M.A_Initial_intertwining" d="M48.14,86.22c-.15.59,0,0-.42,1.83-2.49,10.83-4.96,21.66-7.43,32.49-.8,3.49-1.11,3.75-4.66,3.7-2.26-.03-4.52-.04-6.78-.06-2.89-.03-3.13-.27-3.13-3.1.02-10.8.05-21.6.08-32.4,0-.75,0-1.49,0-2.45-.42-.03-1.18-.07-2.12-.11-4.25-.18-6.76-.03-11.74-.03-2.79,0-2.9-.05-3.5-.01-.61.03-.91.02-1.51-.02-.24-.01-.36-.03-.5-.05-.04,0-.78-.15-1.17-.48-.42-.36-.44-.95-.46-1.67-.15-5.14-.12-5.34-.16-5.94,0-.05-.01-.23-.01-.46.01-.88.02-1.55.45-1.97.42-.42,1.12-.47,1.61-.5.17-.01.3,0,.33,0,.49.01.85.01.91.02,1.09.06,13.86-.05,15.47-.05.86,0,2.05,0,2.05,0,0,0,.23,0,.23,0,.07-.96.15-1.73.15-2.25.03-10.49.04-20.97.06-31.46,0-.63-.04-1.27.09-1.88.27-1.29,1.45-1.65,2.39-.73.58.57,1.05,1.24,1.55,1.89,4.23,5.46,8.45,10.92,12.68,16.38.41.53.84,1.04,1.51,1.86.27-1,.47-1.64.62-2.28,3.55-14.96,7.1-29.92,10.66-44.89.2-.85.36-1.74.71-2.53.2-.44.71-.91,1.17-1.04.68-.19,1.17.35,1.42.97.23.58.39,1.19.56,1.8,4.24,15.3,8.47,30.61,12.7,45.91.21.77.45,1.54.77,2.66.63-.8,1.05-1.31,1.44-1.84,4.46-5.99,8.92-11.99,13.39-17.97.59-.78,1.09-1.87,2.34-1.48,1.35.41,1.14,1.64,1.14,2.69-.05,10.55-.11,21.1-.17,31.65,0,.74,0,1.48,0,2.41.83.04,1.5.1,2.16.1,5.27,0,10.54,0,15.81.01,3.2.01,3.4.24,3.43,3.41.02,1.76.09,3.52.1,5.27,0,1.69-.52,2.28-2.17,2.46-.68.07-1.38.06-2.07.06-5.02,0-10.04,0-15.06,0-.67,0-1.34.05-2.23.09,0,.89,0,1.63,0,2.36-.04,10.61-.07,21.23-.11,31.84-.02,3.55-.19,3.7-3.72,3.73-1.76.02-3.51.1-5.27.11-2.6.02-3.31-.52-3.97-3.04-2.18-8.32-4.36-16.63-6.54-24.95-.8-3.03-1.6-6.06-2.48-9.37-.47.4-8.07,8.94-8.47,9.33-1.23,1.17-2.47,1.16-3.56-.14-1.49-1.78-8.4-9.91-8.56-9.89ZM57.67,16.16q-.15-.59-.33.04c-.16.6-.34,1.19-.49,1.8-1.56,6.53-3.11,13.07-4.66,19.61-2.76,11.67-5.86,23.32-8.61,34.98-.16.7,0,0-.57,2.24,1.53,0,3.36-.05,4.65-.05.67-2.7,1.34-5.25,1.92-7.81,2.06-9.06,4.09-18.12,6.15-27.18.11-.49.25-.98.48-1.41s.86-.84,1.31-.84c.45,0,1.06.38,1.32.83.16.28.25.69.34,1.06.98,3.7,1.99,7.4,2.94,11.1,1.48,5.71,2.89,11.44,4.39,17.14.63,2.41,1.42,4.78,2.14,7.17h5.21c-5.43-19.65-10.82-39.16-16.2-58.66ZM80.55,120.96h6.1c-3.25-11.7-6.44-23.21-9.63-34.7h-5.31c2.96,11.61,5.87,23.07,8.84,34.7ZM57.98,45.66q-.33-1.11-.58,0c-1.68,7.39-3.44,15.01-5.12,22.39-.24,1.05-.24,1.05.42,1.91l3.24,4.15c1.02,1.31,3.49,1.26,4.53-.03,3.49-4.34-.13.2,3.49-4.34.45-.56.32-.4.1-1.48-1.37-6.69-5.89-21.99-6.09-22.59ZM39.63,82.8l38.17.24-.04-4.92h-38.13v4.68ZM40.56,86.22c-.94,2.46-9.39,33.53-9.28,34.9.79,0,5.4.03,5.97-.02,3.04-11.49,5.24-23.17,7.79-34.86-1.53,0-3.08,0-4.48,0ZM109.41,82.9v-4.75h-18.49v4.75h18.49ZM7.36,78.18v4.95h18.45v-4.95H7.36ZM41.38,74.82q-2.39-3.2-2.38-3.13c0,3.13,0,.44,0,.81,0,2.32-.02-.23,0,2.32h2.38ZM78.28,71.64l-2.69,3.19h2.69c0-4.12,0,.93,0-3.19Z"/>
    <g id="Mid_Bar">
      <path d="M25.67,74.94l.14,3.24H7.36v4.95h18.45v3.09s-17.38-.15-17.38-.15c-1.21.04-2.22.03-2.97-.4s-.63-1.14-.68-2.19l-.16-6.19c.01-1.06.17-1.43.24-1.56.5-.85,1.31-.79,3.95-.73"/>
      <path d="M90.85,74.81l17.12.11c2.7.02,3.5-.08,3.95.73,0,0,.26.41.31,1.56l.13,6.06c0,1.06,0,1.86-.74,2.37-.51.35-1.49.5-2.97.49l-17.82.1.1-3.34h18.49v-4.75h-18.49l-.07-3.33Z"/>
      <polyline points="39.63 78.12 39.63 74.82 77.8 74.82 77.76 78.12"/>
      <polyline points="39.63 82.8 39.63 86.22 77.8 86.26 77.8 83.05"/>
    </g>
  </g>
  <g>
    <path d="M144.52,59.46c3.16-.79,7.82-.2,8.79,3.65,3.48,8.1,12.99,30.68,15.15,35.52,1.2,2.49,1.46.09,3.43-4.23,1.93-4.62,4-9.59,6.36-15.26,2.92-6.95,5.68-13.75,7.13-16.99,1.02-2.67,4.19-3.18,7.07-2.89,1.89.23,2.91.76,2.95,2.5-.05,9.63.22,48.73-.09,59.17-.57,2.74-7.39,2.14-8.51.6-1.5-3.52-.37-7.14-.71-13.05,0-3.4,0-7.07,0-10.49-.08-4.64.18-9.26-.16-13.35-.3-1.06-1.03,1.01-1.29,1.49-2.39,5.16-7.64,18.76-10.68,24.83-2.96,4.3-9.35,3.07-10.87-2.27-2.2-5.19-5.85-13.89-8.06-19.13-1.62-3.8-2.45-5.85-2.7-5.09-.51,7.75,0,26.43-.23,34.76.3,3.84-4.65,3.97-7.66,3.23-.83-.25-1.3-.67-1.48-1.35-.44-10.44-.02-49.04-.15-59.13.01-1.19.23-2.07,1.5-2.46l.18-.06Z"/>
    <path d="M207.57,100.1c0-4.78.38-8.45,1.14-11.01.79-2.51,2-4.62,3.63-6.34,1.21-1.5,2.9-2.85,5.07-4.04,2.14-1.13,4.89-1.72,8.24-1.78,3.46.06,6.27.65,8.41,1.79,2.11,1.19,3.75,2.55,4.9,4.06,1.74,1.72,2.98,3.82,3.71,6.33.7,2.56,1.05,6.22,1.05,10.99s-.35,8.41-1.06,10.91c-.73,2.5-1.97,4.67-3.72,6.5-.56.67-1.25,1.32-2.07,1.96-.73.73-1.68,1.35-2.83,1.88-2.14,1.25-4.94,1.91-8.41,1.96-3.35-.06-6.1-.71-8.24-1.96-2.17-1.13-3.86-2.41-5.07-3.84-1.63-1.83-2.85-4-3.63-6.5-.76-2.5-1.14-6.14-1.14-10.91ZM234.93,100.19c0-3.24-.14-5.6-.42-7.09-.28-1.43-.86-2.69-1.74-3.76-.65-1.02-1.61-1.82-2.88-2.41-1.22-.61-2.63-.92-4.24-.92-1.5,0-2.88.31-4.15.92-1.21.58-2.2,1.39-2.96,2.41-.76,1.08-1.31,2.34-1.65,3.76-.34,1.49-.51,3.82-.51,7s.17,5.46.51,6.92c.34,1.49.89,2.8,1.65,3.94.76.88,1.75,1.65,2.96,2.32,1.27.64,2.65.96,4.15.96,1.61,0,3.02-.32,4.24-.96,1.27-.67,2.23-1.44,2.88-2.32.88-1.14,1.45-2.45,1.74-3.94.28-1.46.42-3.74.42-6.83Z"/>
    <path d="M255.87,59.18h5.93c.79,0,1.44.64,1.44,1.44v21.68h.17c2.9-3.58,6.7-5.37,11.4-5.37,3.63,0,6.95,1.32,9.96,3.97,2.98,2.68,4.55,6.6,4.69,11.78v28.67c0,.79-.64,1.44-1.44,1.44h-5.93c-.79,0-1.44-.64-1.44-1.44v-25.56c0-3.17-.82-5.59-2.45-7.25-1.61-1.69-3.68-2.53-6.21-2.53s-4.26.72-5.9,2.41c-1.66,1.66-2.85,4.2-2.85,7.38v25.56c0,.79-.64,1.44-1.44,1.44h-5.93c-.79,0-1.44-.64-1.44-1.44v-60.73c0-.79.64-1.44,1.44-1.44Z"/>
    <path d="M325.46,118.78h-.17c-.82,1.54-2.08,2.68-3.8,3.4-1.69.76-4.03,1.13-7.01,1.13-4.9-.06-8.67-1.4-11.32-4.01-2.79-2.56-4.18-5.83-4.18-9.82s1.21-6.96,3.63-9.47c2.42-2.56,5.97-3.87,10.64-3.93h9.26c1.63,0,2.95-1.32,2.95-2.95v-1.83c.06-4-2.94-5.95-9-5.83-2.2,0-3.93.23-5.2.7-.57.24-1.09.55-1.56.93-1.11.91-2.66,1.01-3.79.13l-2.22-1.75c-1.44-1.14-1.52-3.32-.14-4.53,3.17-2.78,7.32-4.12,12.46-4.03,5.52-.06,9.92,1.02,13.22,3.23,3.29,2.27,4.97,6.17,5.02,11.69v27.99c0,1.63-1.32,2.95-2.95,2.95h-2.92c-1.63,0-2.95-1.32-2.95-2.95v-1.07ZM325.46,106.54c0-1.63-1.32-2.95-2.95-2.95h-7.64c-5.14.12-7.68,1.94-7.62,5.46,0,1.54.66,2.85,1.99,3.93,1.27,1.19,3.37,1.79,6.31,1.79,3.7.06,6.31-.39,7.83-1.35,1.38-.96,2.07-3.14,2.07-6.55v-.33Z"/>
    <path d="M348.27,77.5h5.77c.84,0,1.53.68,1.53,1.53v3.27h.17c3-3.58,6.94-5.37,11.83-5.37,3.14.06,5.67.6,7.59,1.61,1.89,1.13,3.62,2.57,5.19,4.32,3.55-4.01,8.3-5.99,14.27-5.93,3.75,0,7.18,1.32,10.3,3.97,3.08,2.68,4.68,6.6,4.8,11.78v27.87c0,1.24-1,2.24-2.24,2.24h-4.34c-1.24,0-2.24-1-2.24-2.24v-24.76c0-3.17-.84-5.59-2.53-7.25-1.69-1.69-3.86-2.53-6.52-2.53s-4.85.84-6.57,2.53c-1.75,1.66-2.62,4.08-2.62,7.25v24.76c0,1.24-1,2.24-2.24,2.24h-4.33c-1.24,0-2.24-1-2.24-2.24v-24.76c0-3.17-.84-5.59-2.53-7.25-1.72-1.69-3.91-2.53-6.57-2.53s-4.84.84-6.53,2.53c-1.78,1.66-2.66,4.08-2.66,7.25v24.76c0,1.24-1,2.24-2.24,2.24h-4.34c-1.24,0-2.24-1-2.24-2.24v-41.52c0-.84.68-1.53,1.53-1.53Z"/>
    <path d="M446.27,118.78h-.17c-.82,1.54-2.08,2.68-3.8,3.4-1.69.76-4.03,1.13-7.01,1.13-4.9-.06-8.67-1.4-11.32-4.01-2.79-2.56-4.18-5.83-4.18-9.82s1.21-6.96,3.63-9.47c2.42-2.56,5.97-3.87,10.64-3.93h9.75c1.36,0,2.46-1.1,2.46-2.46v-2.32c.06-4-2.94-5.95-9-5.83-2.2,0-3.93.23-5.2.7-.7.29-1.32.69-1.87,1.2-.87.82-2.22.85-3.15.11l-3.01-2.37c-1.14-.9-1.3-2.62-.26-3.63,3.24-3.14,7.59-4.67,13.05-4.57,5.52-.06,9.92,1.02,13.22,3.23,3.29,2.27,4.97,6.17,5.02,11.69v28.48c0,1.36-1.1,2.46-2.46,2.46h-3.89c-1.36,0-2.46-1.1-2.46-2.46v-1.55ZM446.27,106.05c0-1.36-1.1-2.46-2.46-2.46h-8.12c-5.14.12-7.68,1.94-7.62,5.46,0,1.54.66,2.85,1.99,3.93,1.27,1.19,3.37,1.79,6.31,1.79,3.7.06,6.31-.39,7.83-1.35,1.38-.96,2.07-3.14,2.07-6.55v-.82Z"/>
    <path d="M494.13,121.37c0-1.16-1.34-1.86-2.26-1.14-2.52,1.97-5.56,3-9.1,3.09-2.65-.06-4.91-.63-6.8-1.7-1.97-1.05-3.62-2.45-4.94-4.19-1.21-1.43-2.01-3.36-2.41-5.81-.48-2.33-.72-6.17-.72-11.53s.24-9.31.72-11.61c.39-2.33,1.2-4.21,2.41-5.63,2.48-3.79,6.39-5.76,11.74-5.9,2.25,0,4.34.48,6.25,1.43.95.54,1.88,1.17,2.79,1.88s2.32.1,2.32-1.1v-18.55c0-.79.64-1.42,1.42-1.42h5.96c.79,0,1.42.64,1.42,1.42v60.77c0,.79-.64,1.42-1.42,1.42h-5.96c-.79,0-1.42-.64-1.42-1.42h0ZM485.46,86.01c-2.09,0-3.68.36-4.78,1.09-1.21.79-2.1,1.87-2.66,3.24-.54,1.37-.89,2.86-1.06,4.47-.17,1.72-.25,3.49-.25,5.3s.08,3.4.25,5.03c.17,1.72.52,3.27,1.06,4.64.56,1.31,1.45,2.39,2.66,3.24,1.1.82,2.69,1.23,4.78,1.23s3.73-.44,4.95-1.31c1.21-.85,2.04-1.96,2.49-3.33.55-1.35.93-2.85,1.13-4.51,0-.06.01-.12.01-.17.05-1.63.08-3.24.08-4.82,0-1.75-.03-3.43-.08-5.03-.2-1.6-.58-3.09-1.14-4.46-.45-1.37-1.28-2.48-2.49-3.33-1.21-.85-2.86-1.27-4.95-1.27Z"/>
    <path d="M574.88,108.57h-18.36c-1.5,0-2.83.96-3.3,2.38l-3.15,9.47c-.47,1.42-1.8,2.38-3.3,2.38h-2.47c-2.4,0-4.08-2.37-3.28-4.63l19.95-56.66c.49-1.39,1.8-2.32,3.28-2.32h2.89c1.48,0,2.79.93,3.28,2.32l19.95,56.66c.8,2.26-.88,4.63-3.28,4.63h-2.43c-1.49,0-2.82-.95-3.3-2.37l-3.18-9.49c-.48-1.42-1.8-2.37-3.3-2.37ZM569.95,100.02c2.36,0,4.03-2.29,3.31-4.54l-7.46-23.29h-.17l-7.46,23.29c-.72,2.24.96,4.54,3.31,4.54h8.47Z"/>
    <path d="M623.42,92.18c-.46.17-.58.9-.82,1.5-1.72,5-5.68,20.23-8.1,26.6-1.8,3.47-8.48,3.44-9.52-.57-2.42-7.58-10.42-32.75-12.49-39.57-.89-3.06,3.02-2.65,5-2.59,2.43.09,4.2,1.47,4.72,3.84,1.2,4.2,3.46,12.75,5.16,19.01,2.32,7.71,1.98,11.51,4.85,1.85,1.79-5.57,4.78-14.95,6.52-20.32.93-3.05,2.75-4.6,5.54-4.19,1.91.31,3.19,2.02,3.76,3.87,2.1,6.28,6.75,21.27,8.2,25.31.5,1.41.96,1.65,1.47-.05,1.63-5.51,3.36-12.41,4.96-18.22,1.55-4.66,1.27-7.62,3.63-10.11,1.81-1.35,5.73-1.28,7.39-.58,1.33.59.76,2.03-.05,4.61-2.9,9.15-9.66,30.79-11.81,37.37-1.14,3.75-7.47,3.76-9.37.56-3.24-7.78-5.82-21.55-8.97-28.33h-.06Z"/>
    <path d="M685.46,118.78h-.17c-.82,1.54-2.08,2.68-3.8,3.4-1.69.76-4.03,1.13-7.01,1.13-4.9-.06-8.67-1.4-11.32-4.01-2.79-2.56-4.18-5.83-4.18-9.82s1.21-6.96,3.63-9.47c2.42-2.56,5.97-3.87,10.65-3.93h9.74c1.36,0,2.47-1.1,2.47-2.47v-2.31c.06-4-2.94-5.95-9-5.83-2.2,0-3.93.23-5.2.7-.7.29-1.32.69-1.86,1.2-.88.82-2.22.85-3.17.11l-2.99-2.36c-1.14-.9-1.3-2.63-.26-3.64,3.24-3.14,7.58-4.66,13.04-4.56,5.52-.06,9.92,1.02,13.22,3.23,3.29,2.27,4.97,6.17,5.02,11.69v28.47c0,1.36-1.1,2.47-2.47,2.47h-3.87c-1.36,0-2.47-1.1-2.47-2.47v-1.55ZM685.46,106.06c0-1.36-1.1-2.47-2.47-2.47h-8.12c-5.14.12-7.68,1.94-7.62,5.46,0,1.54.66,2.85,1.99,3.93,1.27,1.19,3.37,1.79,6.31,1.79,3.7.06,6.31-.39,7.83-1.35,1.38-.96,2.07-3.14,2.07-6.55v-.81Z"/>
    <path d="M733.32,121.37c0-1.16-1.34-1.86-2.26-1.14-2.52,1.97-5.56,3-9.1,3.09-2.65-.06-4.91-.63-6.8-1.7-1.97-1.05-3.62-2.45-4.94-4.19-1.21-1.43-2.01-3.36-2.41-5.81-.48-2.33-.72-6.17-.72-11.53s.24-9.31.72-11.61c.39-2.33,1.2-4.21,2.41-5.63,2.48-3.79,6.39-5.76,11.74-5.9,2.25,0,4.34.48,6.25,1.43.95.54,1.88,1.17,2.79,1.88s2.32.1,2.32-1.1v-18.55c0-.79.64-1.42,1.42-1.42h5.96c.79,0,1.42.64,1.42,1.42v60.77c0,.79-.64,1.42-1.42,1.42h-5.96c-.79,0-1.42-.64-1.42-1.42h0ZM724.66,86.01c-2.09,0-3.68.36-4.78,1.09-1.21.79-2.1,1.87-2.67,3.24-.53,1.37-.89,2.86-1.06,4.47-.17,1.72-.25,3.49-.25,5.3s.08,3.4.25,5.03c.17,1.72.52,3.27,1.06,4.64.56,1.31,1.45,2.39,2.67,3.24,1.1.82,2.69,1.23,4.78,1.23s3.73-.44,4.95-1.31c1.21-.85,2.04-1.96,2.49-3.33.55-1.35.93-2.85,1.13-4.51,0-.06.01-.12.01-.17.05-1.63.08-3.24.08-4.82,0-1.75-.03-3.43-.08-5.03-.2-1.6-.58-3.09-1.14-4.46-.45-1.37-1.28-2.48-2.49-3.33-1.21-.85-2.86-1.27-4.95-1.27Z"/>
    <path d="M776.52,118.78h-.17c-.82,1.54-2.08,2.68-3.8,3.4-1.69.76-4.03,1.13-7.01,1.13-4.9-.06-8.67-1.4-11.32-4.01-2.79-2.56-4.18-5.83-4.18-9.82s1.21-6.96,3.63-9.47c2.42-2.56,5.97-3.87,10.65-3.93h9.56c1.46,0,2.64-1.18,2.64-2.64v-2.13c.06-4-2.94-5.95-9-5.83-2.2,0-3.93.23-5.2.7-.65.27-1.23.64-1.75,1.1-.96.85-2.38.92-3.39.12l-2.7-2.13c-1.3-1.02-1.34-2.95-.12-4.07,3.2-2.94,7.45-4.36,12.73-4.27,5.52-.06,9.92,1.02,13.22,3.23,3.29,2.27,4.97,6.17,5.02,11.69v28.29c0,1.46-1.18,2.64-2.64,2.64h-3.52c-1.46,0-2.64-1.18-2.64-2.64v-1.37ZM776.52,106.24c0-1.46-1.18-2.64-2.64-2.64h-7.94c-5.14.12-7.68,1.94-7.62,5.46,0,1.54.66,2.85,1.99,3.93,1.27,1.19,3.37,1.79,6.31,1.79,3.7.06,6.31-.39,7.83-1.35,1.38-.96,2.07-3.14,2.07-6.55v-.63Z"/>
  </g>
</svg>